<?xml version="1.0" encoding="UTF-8" standalone="no"?>
<!DOCTYPE svg PUBLIC "-//W3C//DTD SVG 1.1//EN"
 "http://www.w3.org/Graphics/SVG/1.1/DTD/svg11.dtd">
<!-- Generated by graphviz version 2.40.1 (20161225.0304)
 -->
<!-- Title: dependencies Pages: 1 -->
<svg width="875pt" height="211pt"
 viewBox="0.00 0.00 875.00 211.00" xmlns="http://www.w3.org/2000/svg" xmlns:xlink="http://www.w3.org/1999/xlink">
<g id="graph0" class="graph" transform="scale(1 1) rotate(0) translate(4 207)">
<title>dependencies</title>
<polygon fill="#ffffff" stroke="transparent" points="-4,4 -4,-207 871,-207 871,4 -4,4"/>
<text text-anchor="start" x="412.5091" y="-42.4" font-family="sans-serif" font-weight="bold" font-size="14.00" fill="#000000">Legend</text>
<polygon fill="#ffffb3" stroke="transparent" points="199.5,-10 199.5,-30 219.5,-30 219.5,-10 199.5,-10"/>
<text text-anchor="start" x="223.129" y="-15.4" font-family="sans-serif" font-size="14.00" fill="#000000"> &#160;Declarations</text>
<polygon fill="#8dd3c7" stroke="transparent" points="312.5,-10 312.5,-30 332.5,-30 332.5,-10 312.5,-10"/>
<text text-anchor="start" x="336.2251" y="-15.4" font-family="sans-serif" font-size="14.00" fill="#000000"> &#160;Module</text>
<polygon fill="#80b1d3" stroke="transparent" points="398.5,-10 398.5,-30 418.5,-30 418.5,-10 398.5,-10"/>
<text text-anchor="start" x="422.2812" y="-15.4" font-family="sans-serif" font-size="14.00" fill="#000000"> &#160;Bootstrap</text>
<polygon fill="#fdb462" stroke="transparent" points="495.5,-10 495.5,-30 515.5,-30 515.5,-10 495.5,-10"/>
<text text-anchor="start" x="519.1732" y="-15.4" font-family="sans-serif" font-size="14.00" fill="#000000"> &#160;Providers</text>
<polygon fill="#fb8072" stroke="transparent" points="591.5,-10 591.5,-30 611.5,-30 611.5,-10 591.5,-10"/>
<text text-anchor="start" x="615.2258" y="-15.4" font-family="sans-serif" font-size="14.00" fill="#000000"> &#160;Exports</text>
<g id="clust1" class="cluster">
<title>cluster_DashboardModule</title>
<polygon fill="none" stroke="#000000" stroke-dasharray="1,5" points="8,-70 8,-195 859,-195 859,-70 8,-70"/>
</g>
<g id="clust2" class="cluster">
<title>cluster_DashboardModule_declarations</title>
<polygon fill="none" stroke="#000000" points="156,-78 156,-130 851,-130 851,-78 156,-78"/>
</g>
<g id="clust11" class="cluster">
<title>cluster_DashboardModule_providers</title>
<polygon fill="none" stroke="#000000" points="16,-78 16,-130 148,-130 148,-78 16,-78"/>
</g>
<!-- DashboardComponent -->
<g id="node1" class="node">
<title>DashboardComponent</title>
<polygon fill="#ffffb3" stroke="#000000" points="842.9734,-122 701.0266,-122 701.0266,-86 842.9734,-86 842.9734,-122"/>
<text text-anchor="middle" x="772" y="-99.8" font-family="Times,serif" font-size="14.00" fill="#000000">DashboardComponent</text>
</g>
<!-- DashboardModule -->
<g id="node6" class="node">
<title>DashboardModule</title>
<polygon fill="#8dd3c7" stroke="#000000" points="479.191,-187 476.191,-191 455.191,-191 452.191,-187 358.809,-187 358.809,-151 479.191,-151 479.191,-187"/>
<text text-anchor="middle" x="419" y="-164.8" font-family="Times,serif" font-size="14.00" fill="#000000">DashboardModule</text>
</g>
<!-- DashboardComponent&#45;&gt;DashboardModule -->
<g id="edge1" class="edge">
<title>DashboardComponent&#45;&gt;DashboardModule</title>
<path fill="none" stroke="#000000" d="M772,-122.2843C772,-143.3211 772,-175 772,-175 772,-175 489.2818,-175 489.2818,-175"/>
<polygon fill="#000000" stroke="#000000" points="489.2818,-171.5001 479.2818,-175 489.2817,-178.5001 489.2818,-171.5001"/>
</g>
<!-- HomeComponent -->
<g id="node2" class="node">
<title>HomeComponent</title>
<polygon fill="#ffffb3" stroke="#000000" points="682.5451,-122 567.4549,-122 567.4549,-86 682.5451,-86 682.5451,-122"/>
<text text-anchor="middle" x="625" y="-99.8" font-family="Times,serif" font-size="14.00" fill="#000000">HomeComponent</text>
</g>
<!-- HomeComponent&#45;&gt;DashboardModule -->
<g id="edge2" class="edge">
<title>HomeComponent&#45;&gt;DashboardModule</title>
<path fill="none" stroke="#000000" d="M625,-122.0225C625,-139.3734 625,-163 625,-163 625,-163 489.1375,-163 489.1375,-163"/>
<polygon fill="#000000" stroke="#000000" points="489.1375,-159.5001 479.1375,-163 489.1375,-166.5001 489.1375,-159.5001"/>
</g>
<!-- AdminComponent -->
<g id="node3" class="node">
<title>AdminComponent</title>
<polygon fill="#ffffb3" stroke="#000000" points="549.2204,-122 428.7796,-122 428.7796,-86 549.2204,-86 549.2204,-122"/>
<text text-anchor="middle" x="489" y="-99.8" font-family="Times,serif" font-size="14.00" fill="#000000">AdminComponent</text>
</g>
<!-- AdminComponent&#45;&gt;DashboardModule -->
<g id="edge3" class="edge">
<title>AdminComponent&#45;&gt;DashboardModule</title>
<path fill="none" stroke="#000000" d="M453.9927,-122.1061C453.9927,-122.1061 453.9927,-140.991 453.9927,-140.991"/>
<polygon fill="#000000" stroke="#000000" points="450.4927,-140.9909 453.9927,-150.991 457.4927,-140.991 450.4927,-140.9909"/>
</g>
<!-- LeafletComponent -->
<g id="node4" class="node">
<title>LeafletComponent</title>
<polygon fill="#ffffb3" stroke="#000000" points="410.4706,-122 289.5294,-122 289.5294,-86 410.4706,-86 410.4706,-122"/>
<text text-anchor="middle" x="350" y="-99.8" font-family="Times,serif" font-size="14.00" fill="#000000">LeafletComponent</text>
</g>
<!-- LeafletComponent&#45;&gt;DashboardModule -->
<g id="edge4" class="edge">
<title>LeafletComponent&#45;&gt;DashboardModule</title>
<path fill="none" stroke="#000000" d="M384.695,-122.1061C384.695,-122.1061 384.695,-140.991 384.695,-140.991"/>
<polygon fill="#000000" stroke="#000000" points="381.195,-140.9909 384.695,-150.991 388.195,-140.991 381.195,-140.9909"/>
</g>
<!-- ChatComponent -->
<g id="node5" class="node">
<title>ChatComponent</title>
<polygon fill="#ffffb3" stroke="#000000" points="271.7744,-122 164.2256,-122 164.2256,-86 271.7744,-86 271.7744,-122"/>
<text text-anchor="middle" x="218" y="-99.8" font-family="Times,serif" font-size="14.00" fill="#000000">ChatComponent</text>
</g>
<!-- ChatComponent&#45;&gt;DashboardModule -->
<g id="edge5" class="edge">
<title>ChatComponent&#45;&gt;DashboardModule</title>
<path fill="none" stroke="#000000" d="M218,-122.0225C218,-139.3734 218,-163 218,-163 218,-163 348.6934,-163 348.6934,-163"/>
<polygon fill="#000000" stroke="#000000" points="348.6934,-166.5001 358.6934,-163 348.6933,-159.5001 348.6934,-166.5001"/>
</g>
<!-- MapService -->
<g id="node7" class="node">
<title>MapService</title>
<ellipse fill="#fdb462" stroke="#000000" cx="82" cy="-104" rx="57.8829" ry="18"/>
<text text-anchor="middle" x="82" y="-99.8" font-family="Times,serif" font-size="14.00" fill="#000000">MapService</text>
</g>
<!-- MapService&#45;&gt;DashboardModule -->
<g id="edge6" class="edge">
<title>MapService&#45;&gt;DashboardModule</title>
<path fill="none" stroke="#000000" d="M82,-122.2843C82,-143.3211 82,-175 82,-175 82,-175 348.7512,-175 348.7512,-175"/>
<polygon fill="#000000" stroke="#000000" points="348.7512,-178.5001 358.7512,-175 348.7511,-171.5001 348.7512,-178.5001"/>
</g>
</g>
</svg>
