<?xml version="1.0" encoding="UTF-8" standalone="no"?>
<!DOCTYPE svg PUBLIC "-//W3C//DTD SVG 1.1//EN"
 "http://www.w3.org/Graphics/SVG/1.1/DTD/svg11.dtd">
<!-- Generated by graphviz version 2.40.1 (20161225.0304)
 -->
<!-- Title: dependencies Pages: 1 -->
<svg width="1297pt" height="284pt"
 viewBox="0.00 0.00 1297.00 284.00" xmlns="http://www.w3.org/2000/svg" xmlns:xlink="http://www.w3.org/1999/xlink">
<g id="graph0" class="graph" transform="scale(1 1) rotate(0) translate(4 280)">
<title>dependencies</title>
<polygon fill="#ffffff" stroke="transparent" points="-4,4 -4,-280 1293,-280 1293,4 -4,4"/>
<text text-anchor="start" x="623.5091" y="-42.4" font-family="sans-serif" font-weight="bold" font-size="14.00" fill="#000000">Legend</text>
<polygon fill="#ffffb3" stroke="transparent" points="410.5,-10 410.5,-30 430.5,-30 430.5,-10 410.5,-10"/>
<text text-anchor="start" x="434.129" y="-15.4" font-family="sans-serif" font-size="14.00" fill="#000000"> &#160;Declarations</text>
<polygon fill="#8dd3c7" stroke="transparent" points="523.5,-10 523.5,-30 543.5,-30 543.5,-10 523.5,-10"/>
<text text-anchor="start" x="547.2251" y="-15.4" font-family="sans-serif" font-size="14.00" fill="#000000"> &#160;Module</text>
<polygon fill="#80b1d3" stroke="transparent" points="609.5,-10 609.5,-30 629.5,-30 629.5,-10 609.5,-10"/>
<text text-anchor="start" x="633.2812" y="-15.4" font-family="sans-serif" font-size="14.00" fill="#000000"> &#160;Bootstrap</text>
<polygon fill="#fdb462" stroke="transparent" points="706.5,-10 706.5,-30 726.5,-30 726.5,-10 706.5,-10"/>
<text text-anchor="start" x="730.1732" y="-15.4" font-family="sans-serif" font-size="14.00" fill="#000000"> &#160;Providers</text>
<polygon fill="#fb8072" stroke="transparent" points="802.5,-10 802.5,-30 822.5,-30 822.5,-10 802.5,-10"/>
<text text-anchor="start" x="826.2258" y="-15.4" font-family="sans-serif" font-size="14.00" fill="#000000"> &#160;Exports</text>
<g id="clust1" class="cluster">
<title>cluster_AppModule</title>
<polygon fill="none" stroke="#000000" stroke-dasharray="1,5" points="8,-70 8,-268 1281,-268 1281,-70 8,-70"/>
</g>
<g id="clust2" class="cluster">
<title>cluster_AppModule_declarations</title>
<polygon fill="none" stroke="#000000" points="689,-78 689,-130 1273,-130 1273,-78 689,-78"/>
</g>
<g id="clust7" class="cluster">
<title>cluster_AppModule_imports</title>
<polygon fill="none" stroke="#000000" points="545,-78 545,-130 681,-130 681,-78 545,-78"/>
</g>
<g id="clust9" class="cluster">
<title>cluster_AppModule_bootstrap</title>
<polygon fill="none" stroke="#000000" points="551,-208 551,-260 675,-260 675,-208 551,-208"/>
</g>
<g id="clust10" class="cluster">
<title>cluster_AppModule_providers</title>
<polygon fill="none" stroke="#000000" points="16,-78 16,-130 537,-130 537,-78 16,-78"/>
</g>
<!-- AppComponent -->
<g id="node1" class="node">
<title>AppComponent</title>
<polygon fill="#ffffb3" stroke="#000000" points="1264.9399,-122 1159.0601,-122 1159.0601,-86 1264.9399,-86 1264.9399,-122"/>
<text text-anchor="middle" x="1212" y="-99.8" font-family="Times,serif" font-size="14.00" fill="#000000">AppComponent</text>
</g>
<!-- AppModule -->
<g id="node5" class="node">
<title>AppModule</title>
<polygon fill="#8dd3c7" stroke="#000000" points="654.6571,-187 651.6571,-191 630.6571,-191 627.6571,-187 571.3429,-187 571.3429,-151 654.6571,-151 654.6571,-187"/>
<text text-anchor="middle" x="613" y="-164.8" font-family="Times,serif" font-size="14.00" fill="#000000">AppModule</text>
</g>
<!-- AppComponent&#45;&gt;AppModule -->
<g id="edge1" class="edge">
<title>AppComponent&#45;&gt;AppModule</title>
<path fill="none" stroke="#000000" d="M1212,-122.0109C1212,-144.4852 1212,-180 1212,-180 1212,-180 665.1205,-180 665.1205,-180"/>
<polygon fill="#000000" stroke="#000000" points="665.1206,-176.5001 655.1205,-180 665.1205,-183.5001 665.1206,-176.5001"/>
</g>
<!-- LoginComponent -->
<g id="node2" class="node">
<title>LoginComponent</title>
<polygon fill="#ffffb3" stroke="#000000" points="1141.2758,-122 1026.7242,-122 1026.7242,-86 1141.2758,-86 1141.2758,-122"/>
<text text-anchor="middle" x="1084" y="-99.8" font-family="Times,serif" font-size="14.00" fill="#000000">LoginComponent</text>
</g>
<!-- LoginComponent&#45;&gt;AppModule -->
<g id="edge2" class="edge">
<title>LoginComponent&#45;&gt;AppModule</title>
<path fill="none" stroke="#000000" d="M1084,-122.1289C1084,-142.5724 1084,-173 1084,-173 1084,-173 664.7981,-173 664.7981,-173"/>
<polygon fill="#000000" stroke="#000000" points="664.7981,-169.5001 654.7981,-173 664.7981,-176.5001 664.7981,-169.5001"/>
</g>
<!-- PageNotFoundComponent -->
<g id="node3" class="node">
<title>PageNotFoundComponent</title>
<polygon fill="#ffffb3" stroke="#000000" points="1008.8243,-122 843.1757,-122 843.1757,-86 1008.8243,-86 1008.8243,-122"/>
<text text-anchor="middle" x="926" y="-99.8" font-family="Times,serif" font-size="14.00" fill="#000000">PageNotFoundComponent</text>
</g>
<!-- PageNotFoundComponent&#45;&gt;AppModule -->
<g id="edge3" class="edge">
<title>PageNotFoundComponent&#45;&gt;AppModule</title>
<path fill="none" stroke="#000000" d="M926,-122.2667C926,-140.5552 926,-166 926,-166 926,-166 664.8878,-166 664.8878,-166"/>
<polygon fill="#000000" stroke="#000000" points="664.8878,-162.5001 654.8878,-166 664.8878,-169.5001 664.8878,-162.5001"/>
</g>
<!-- RegisterComponent -->
<g id="node4" class="node">
<title>RegisterComponent</title>
<polygon fill="#ffffb3" stroke="#000000" points="824.9846,-122 697.0154,-122 697.0154,-86 824.9846,-86 824.9846,-122"/>
<text text-anchor="middle" x="761" y="-99.8" font-family="Times,serif" font-size="14.00" fill="#000000">RegisterComponent</text>
</g>
<!-- RegisterComponent&#45;&gt;AppModule -->
<g id="edge4" class="edge">
<title>RegisterComponent&#45;&gt;AppModule</title>
<path fill="none" stroke="#000000" d="M761,-122.0091C761,-138.0494 761,-159 761,-159 761,-159 665.015,-159 665.015,-159"/>
<polygon fill="#000000" stroke="#000000" points="665.015,-155.5001 655.015,-159 665.0149,-162.5001 665.015,-155.5001"/>
</g>
<!-- AppComponent  -->
<g id="node7" class="node">
<title>AppComponent </title>
<polygon fill="#80b1d3" stroke="#000000" points="667.439,-252 558.561,-252 558.561,-216 667.439,-216 667.439,-252"/>
<text text-anchor="middle" x="613" y="-229.8" font-family="Times,serif" font-size="14.00" fill="#000000">AppComponent </text>
</g>
<!-- AppModule&#45;&gt;AppComponent  -->
<g id="edge6" class="edge">
<title>AppModule&#45;&gt;AppComponent </title>
<path fill="none" stroke="#000000" stroke-dasharray="1,5" d="M613,-187.1061C613,-187.1061 613,-205.991 613,-205.991"/>
<polygon fill="#000000" stroke="#000000" points="609.5001,-205.9909 613,-215.991 616.5001,-205.991 609.5001,-205.9909"/>
</g>
<!-- DashboardModule -->
<g id="node6" class="node">
<title>DashboardModule</title>
<polygon fill="#8dd3c7" stroke="#000000" points="673.191,-122 670.191,-126 649.191,-126 646.191,-122 552.809,-122 552.809,-86 673.191,-86 673.191,-122"/>
<text text-anchor="middle" x="613" y="-99.8" font-family="Times,serif" font-size="14.00" fill="#000000">DashboardModule</text>
</g>
<!-- DashboardModule&#45;&gt;AppModule -->
<g id="edge5" class="edge">
<title>DashboardModule&#45;&gt;AppModule</title>
<path fill="none" stroke="#000000" d="M613,-122.1061C613,-122.1061 613,-140.991 613,-140.991"/>
<polygon fill="#000000" stroke="#000000" points="609.5001,-140.9909 613,-150.991 616.5001,-140.991 609.5001,-140.9909"/>
</g>
<!-- AuthGuard -->
<g id="node8" class="node">
<title>AuthGuard</title>
<ellipse fill="#fdb462" stroke="#000000" cx="475" cy="-104" rx="54.4566" ry="18"/>
<text text-anchor="middle" x="475" y="-99.8" font-family="Times,serif" font-size="14.00" fill="#000000">AuthGuard</text>
</g>
<!-- AuthGuard&#45;&gt;AppModule -->
<g id="edge7" class="edge">
<title>AuthGuard&#45;&gt;AppModule</title>
<path fill="none" stroke="#000000" d="M475,-122.0091C475,-138.0494 475,-159 475,-159 475,-159 561.221,-159 561.221,-159"/>
<polygon fill="#000000" stroke="#000000" points="561.221,-162.5001 571.221,-159 561.2209,-155.5001 561.221,-162.5001"/>
</g>
<!-- RoleGuard -->
<g id="node9" class="node">
<title>RoleGuard</title>
<ellipse fill="#fdb462" stroke="#000000" cx="349" cy="-104" rx="53.3109" ry="18"/>
<text text-anchor="middle" x="349" y="-99.8" font-family="Times,serif" font-size="14.00" fill="#000000">RoleGuard</text>
</g>
<!-- RoleGuard&#45;&gt;AppModule -->
<g id="edge8" class="edge">
<title>RoleGuard&#45;&gt;AppModule</title>
<path fill="none" stroke="#000000" d="M349,-122.2667C349,-140.5552 349,-166 349,-166 349,-166 561.1684,-166 561.1684,-166"/>
<polygon fill="#000000" stroke="#000000" points="561.1685,-169.5001 571.1684,-166 561.1684,-162.5001 561.1685,-169.5001"/>
</g>
<!-- AuthService -->
<g id="node10" class="node">
<title>AuthService</title>
<ellipse fill="#fdb462" stroke="#000000" cx="218" cy="-104" rx="59.1083" ry="18"/>
<text text-anchor="middle" x="218" y="-99.8" font-family="Times,serif" font-size="14.00" fill="#000000">AuthService</text>
</g>
<!-- AuthService&#45;&gt;AppModule -->
<g id="edge9" class="edge">
<title>AuthService&#45;&gt;AppModule</title>
<path fill="none" stroke="#000000" d="M218,-122.1289C218,-142.5724 218,-173 218,-173 218,-173 561.102,-173 561.102,-173"/>
<polygon fill="#000000" stroke="#000000" points="561.1021,-176.5001 571.102,-173 561.102,-169.5001 561.1021,-176.5001"/>
</g>
<!-- UserService -->
<g id="node11" class="node">
<title>UserService</title>
<ellipse fill="#fdb462" stroke="#000000" cx="82" cy="-104" rx="58.4415" ry="18"/>
<text text-anchor="middle" x="82" y="-99.8" font-family="Times,serif" font-size="14.00" fill="#000000">UserService</text>
</g>
<!-- UserService&#45;&gt;AppModule -->
<g id="edge10" class="edge">
<title>UserService&#45;&gt;AppModule</title>
<path fill="none" stroke="#000000" d="M82,-122.0109C82,-144.4852 82,-180 82,-180 82,-180 561.3333,-180 561.3333,-180"/>
<polygon fill="#000000" stroke="#000000" points="561.3334,-183.5001 571.3333,-180 561.3333,-176.5001 561.3334,-183.5001"/>
</g>
</g>
</svg>
