<?xml version="1.0" encoding="UTF-8" standalone="no"?>
<!DOCTYPE svg PUBLIC "-//W3C//DTD SVG 1.1//EN"
 "http://www.w3.org/Graphics/SVG/1.1/DTD/svg11.dtd">
<!-- Generated by graphviz version 2.40.1 (20161225.0304)
 -->
<!-- Title: dependencies Pages: 1 -->
<svg width="1297pt" height="360pt"
 viewBox="0.00 0.00 1297.00 360.00" xmlns="http://www.w3.org/2000/svg" xmlns:xlink="http://www.w3.org/1999/xlink">
<g id="graph0" class="graph" transform="scale(1 1) rotate(0) translate(4 356)">
<title>dependencies</title>
<polygon fill="#ffffff" stroke="transparent" points="-4,4 -4,-356 1293,-356 1293,4 -4,4"/>
<text text-anchor="start" x="623.5091" y="-42.4" font-family="sans-serif" font-weight="bold" font-size="14.00" fill="#000000">Legend</text>
<polygon fill="#ffffb3" stroke="transparent" points="410.5,-10 410.5,-30 430.5,-30 430.5,-10 410.5,-10"/>
<text text-anchor="start" x="434.129" y="-15.4" font-family="sans-serif" font-size="14.00" fill="#000000"> &#160;Declarations</text>
<polygon fill="#8dd3c7" stroke="transparent" points="523.5,-10 523.5,-30 543.5,-30 543.5,-10 523.5,-10"/>
<text text-anchor="start" x="547.2251" y="-15.4" font-family="sans-serif" font-size="14.00" fill="#000000"> &#160;Module</text>
<polygon fill="#80b1d3" stroke="transparent" points="609.5,-10 609.5,-30 629.5,-30 629.5,-10 609.5,-10"/>
<text text-anchor="start" x="633.2812" y="-15.4" font-family="sans-serif" font-size="14.00" fill="#000000"> &#160;Bootstrap</text>
<polygon fill="#fdb462" stroke="transparent" points="706.5,-10 706.5,-30 726.5,-30 726.5,-10 706.5,-10"/>
<text text-anchor="start" x="730.1732" y="-15.4" font-family="sans-serif" font-size="14.00" fill="#000000"> &#160;Providers</text>
<polygon fill="#fb8072" stroke="transparent" points="802.5,-10 802.5,-30 822.5,-30 822.5,-10 802.5,-10"/>
<text text-anchor="start" x="826.2258" y="-15.4" font-family="sans-serif" font-size="14.00" fill="#000000"> &#160;Exports</text>
<g id="clust1" class="cluster">
<title>cluster_AppModule</title>
<polygon fill="none" stroke="#000000" stroke-dasharray="1,5" points="8,-146 8,-344 1281,-344 1281,-146 8,-146"/>
</g>
<g id="clust2" class="cluster">
<title>cluster_AppModule_declarations</title>
<polygon fill="none" stroke="#000000" points="689,-154 689,-206 1273,-206 1273,-154 689,-154"/>
</g>
<g id="clust7" class="cluster">
<title>cluster_AppModule_imports</title>
<polygon fill="none" stroke="#000000" points="545,-154 545,-206 681,-206 681,-154 545,-154"/>
</g>
<g id="clust9" class="cluster">
<title>cluster_AppModule_bootstrap</title>
<polygon fill="none" stroke="#000000" points="551,-284 551,-336 675,-336 675,-284 551,-284"/>
</g>
<g id="clust10" class="cluster">
<title>cluster_AppModule_providers</title>
<polygon fill="none" stroke="#000000" points="16,-154 16,-206 537,-206 537,-154 16,-154"/>
</g>
<g id="clust11" class="cluster">
<title>cluster_DashboardModule</title>
<polygon fill="none" stroke="#000000" stroke-dasharray="1,5" points="201,-70 201,-138 1052,-138 1052,-70 201,-70"/>
</g>
<g id="clust12" class="cluster">
<title>cluster_DashboardModule_declarations</title>
<polygon fill="none" stroke="#000000" points="349,-78 349,-130 1044,-130 1044,-78 349,-78"/>
</g>
<g id="clust21" class="cluster">
<title>cluster_DashboardModule_providers</title>
<polygon fill="none" stroke="#000000" points="209,-78 209,-130 341,-130 341,-78 209,-78"/>
</g>
<!-- AppComponent -->
<g id="node1" class="node">
<title>AppComponent</title>
<polygon fill="#ffffb3" stroke="#000000" points="1264.9399,-198 1159.0601,-198 1159.0601,-162 1264.9399,-162 1264.9399,-198"/>
<text text-anchor="middle" x="1212" y="-175.8" font-family="Times,serif" font-size="14.00" fill="#000000">AppComponent</text>
</g>
<!-- AppModule -->
<g id="node5" class="node">
<title>AppModule</title>
<polygon fill="#8dd3c7" stroke="#000000" points="654.6571,-263 651.6571,-267 630.6571,-267 627.6571,-263 571.3429,-263 571.3429,-227 654.6571,-227 654.6571,-263"/>
<text text-anchor="middle" x="613" y="-240.8" font-family="Times,serif" font-size="14.00" fill="#000000">AppModule</text>
</g>
<!-- AppComponent&#45;&gt;AppModule -->
<g id="edge1" class="edge">
<title>AppComponent&#45;&gt;AppModule</title>
<path fill="none" stroke="#000000" d="M1212,-198.0109C1212,-220.4852 1212,-256 1212,-256 1212,-256 665.1205,-256 665.1205,-256"/>
<polygon fill="#000000" stroke="#000000" points="665.1206,-252.5001 655.1205,-256 665.1205,-259.5001 665.1206,-252.5001"/>
</g>
<!-- LoginComponent -->
<g id="node2" class="node">
<title>LoginComponent</title>
<polygon fill="#ffffb3" stroke="#000000" points="1141.2758,-198 1026.7242,-198 1026.7242,-162 1141.2758,-162 1141.2758,-198"/>
<text text-anchor="middle" x="1084" y="-175.8" font-family="Times,serif" font-size="14.00" fill="#000000">LoginComponent</text>
</g>
<!-- LoginComponent&#45;&gt;AppModule -->
<g id="edge2" class="edge">
<title>LoginComponent&#45;&gt;AppModule</title>
<path fill="none" stroke="#000000" d="M1084,-198.1289C1084,-218.5724 1084,-249 1084,-249 1084,-249 664.7981,-249 664.7981,-249"/>
<polygon fill="#000000" stroke="#000000" points="664.7981,-245.5001 654.7981,-249 664.7981,-252.5001 664.7981,-245.5001"/>
</g>
<!-- PageNotFoundComponent -->
<g id="node3" class="node">
<title>PageNotFoundComponent</title>
<polygon fill="#ffffb3" stroke="#000000" points="1008.8243,-198 843.1757,-198 843.1757,-162 1008.8243,-162 1008.8243,-198"/>
<text text-anchor="middle" x="926" y="-175.8" font-family="Times,serif" font-size="14.00" fill="#000000">PageNotFoundComponent</text>
</g>
<!-- PageNotFoundComponent&#45;&gt;AppModule -->
<g id="edge3" class="edge">
<title>PageNotFoundComponent&#45;&gt;AppModule</title>
<path fill="none" stroke="#000000" d="M926,-198.2667C926,-216.5552 926,-242 926,-242 926,-242 664.8878,-242 664.8878,-242"/>
<polygon fill="#000000" stroke="#000000" points="664.8878,-238.5001 654.8878,-242 664.8878,-245.5001 664.8878,-238.5001"/>
</g>
<!-- RegisterComponent -->
<g id="node4" class="node">
<title>RegisterComponent</title>
<polygon fill="#ffffb3" stroke="#000000" points="824.9846,-198 697.0154,-198 697.0154,-162 824.9846,-162 824.9846,-198"/>
<text text-anchor="middle" x="761" y="-175.8" font-family="Times,serif" font-size="14.00" fill="#000000">RegisterComponent</text>
</g>
<!-- RegisterComponent&#45;&gt;AppModule -->
<g id="edge4" class="edge">
<title>RegisterComponent&#45;&gt;AppModule</title>
<path fill="none" stroke="#000000" d="M761,-198.0091C761,-214.0494 761,-235 761,-235 761,-235 665.015,-235 665.015,-235"/>
<polygon fill="#000000" stroke="#000000" points="665.015,-231.5001 655.015,-235 665.0149,-238.5001 665.015,-231.5001"/>
</g>
<!-- AppComponent  -->
<g id="node7" class="node">
<title>AppComponent </title>
<polygon fill="#80b1d3" stroke="#000000" points="667.439,-328 558.561,-328 558.561,-292 667.439,-292 667.439,-328"/>
<text text-anchor="middle" x="613" y="-305.8" font-family="Times,serif" font-size="14.00" fill="#000000">AppComponent </text>
</g>
<!-- AppModule&#45;&gt;AppComponent  -->
<g id="edge6" class="edge">
<title>AppModule&#45;&gt;AppComponent </title>
<path fill="none" stroke="#000000" stroke-dasharray="1,5" d="M613,-263.1061C613,-263.1061 613,-281.991 613,-281.991"/>
<polygon fill="#000000" stroke="#000000" points="609.5001,-281.9909 613,-291.991 616.5001,-281.991 609.5001,-281.9909"/>
</g>
<!-- DashboardModule -->
<g id="node6" class="node">
<title>DashboardModule</title>
<polygon fill="#8dd3c7" stroke="#000000" points="673.191,-198 670.191,-202 649.191,-202 646.191,-198 552.809,-198 552.809,-162 673.191,-162 673.191,-198"/>
<text text-anchor="middle" x="613" y="-175.8" font-family="Times,serif" font-size="14.00" fill="#000000">DashboardModule</text>
</g>
<!-- DashboardModule&#45;&gt;AppModule -->
<g id="edge5" class="edge">
<title>DashboardModule&#45;&gt;AppModule</title>
<path fill="none" stroke="#000000" d="M613,-198.1061C613,-198.1061 613,-216.991 613,-216.991"/>
<polygon fill="#000000" stroke="#000000" points="609.5001,-216.9909 613,-226.991 616.5001,-216.991 609.5001,-216.9909"/>
</g>
<!-- AuthGuard -->
<g id="node8" class="node">
<title>AuthGuard</title>
<ellipse fill="#fdb462" stroke="#000000" cx="475" cy="-180" rx="54.4566" ry="18"/>
<text text-anchor="middle" x="475" y="-175.8" font-family="Times,serif" font-size="14.00" fill="#000000">AuthGuard</text>
</g>
<!-- AuthGuard&#45;&gt;AppModule -->
<g id="edge7" class="edge">
<title>AuthGuard&#45;&gt;AppModule</title>
<path fill="none" stroke="#000000" d="M475,-198.0091C475,-214.0494 475,-235 475,-235 475,-235 561.221,-235 561.221,-235"/>
<polygon fill="#000000" stroke="#000000" points="561.221,-238.5001 571.221,-235 561.2209,-231.5001 561.221,-238.5001"/>
</g>
<!-- RoleGuard -->
<g id="node9" class="node">
<title>RoleGuard</title>
<ellipse fill="#fdb462" stroke="#000000" cx="349" cy="-180" rx="53.3109" ry="18"/>
<text text-anchor="middle" x="349" y="-175.8" font-family="Times,serif" font-size="14.00" fill="#000000">RoleGuard</text>
</g>
<!-- RoleGuard&#45;&gt;AppModule -->
<g id="edge8" class="edge">
<title>RoleGuard&#45;&gt;AppModule</title>
<path fill="none" stroke="#000000" d="M349,-198.2667C349,-216.5552 349,-242 349,-242 349,-242 561.1684,-242 561.1684,-242"/>
<polygon fill="#000000" stroke="#000000" points="561.1685,-245.5001 571.1684,-242 561.1684,-238.5001 561.1685,-245.5001"/>
</g>
<!-- AuthService -->
<g id="node10" class="node">
<title>AuthService</title>
<ellipse fill="#fdb462" stroke="#000000" cx="218" cy="-180" rx="59.1083" ry="18"/>
<text text-anchor="middle" x="218" y="-175.8" font-family="Times,serif" font-size="14.00" fill="#000000">AuthService</text>
</g>
<!-- AuthService&#45;&gt;AppModule -->
<g id="edge9" class="edge">
<title>AuthService&#45;&gt;AppModule</title>
<path fill="none" stroke="#000000" d="M218,-198.1289C218,-218.5724 218,-249 218,-249 218,-249 561.102,-249 561.102,-249"/>
<polygon fill="#000000" stroke="#000000" points="561.1021,-252.5001 571.102,-249 561.102,-245.5001 561.1021,-252.5001"/>
</g>
<!-- UserService -->
<g id="node11" class="node">
<title>UserService</title>
<ellipse fill="#fdb462" stroke="#000000" cx="82" cy="-180" rx="58.4415" ry="18"/>
<text text-anchor="middle" x="82" y="-175.8" font-family="Times,serif" font-size="14.00" fill="#000000">UserService</text>
</g>
<!-- UserService&#45;&gt;AppModule -->
<g id="edge10" class="edge">
<title>UserService&#45;&gt;AppModule</title>
<path fill="none" stroke="#000000" d="M82,-198.0109C82,-220.4852 82,-256 82,-256 82,-256 561.3333,-256 561.3333,-256"/>
<polygon fill="#000000" stroke="#000000" points="561.3334,-259.5001 571.3333,-256 561.3333,-252.5001 561.3334,-259.5001"/>
</g>
<!-- DashboardComponent -->
<g id="node12" class="node">
<title>DashboardComponent</title>
<polygon fill="#ffffb3" stroke="#000000" points="1035.9734,-122 894.0266,-122 894.0266,-86 1035.9734,-86 1035.9734,-122"/>
<text text-anchor="middle" x="965" y="-99.8" font-family="Times,serif" font-size="14.00" fill="#000000">DashboardComponent</text>
</g>
<!-- DashboardComponent&#45;&gt;DashboardModule -->
<g id="edge11" class="edge">
<title>DashboardComponent&#45;&gt;DashboardModule</title>
<path fill="none" stroke="#000000" d="M951.3377,-122.1944C951.3377,-130.2782 951.3377,-138 951.3377,-138 951.3377,-138 660.294,-138 660.294,-138 660.294,-138 660.294,-151.9445 660.294,-151.9445"/>
<polygon fill="#000000" stroke="#000000" points="656.7941,-151.9444 660.294,-161.9445 663.7941,-151.9445 656.7941,-151.9444"/>
</g>
<!-- HomeComponent -->
<g id="node13" class="node">
<title>HomeComponent</title>
<polygon fill="#ffffb3" stroke="#000000" points="875.5451,-122 760.4549,-122 760.4549,-86 875.5451,-86 875.5451,-122"/>
<text text-anchor="middle" x="818" y="-99.8" font-family="Times,serif" font-size="14.00" fill="#000000">HomeComponent</text>
</g>
<!-- HomeComponent&#45;&gt;DashboardModule -->
<g id="edge12" class="edge">
<title>HomeComponent&#45;&gt;DashboardModule</title>
<path fill="none" stroke="#000000" d="M792.6101,-122.0579C792.6101,-126.4945 792.6101,-130 792.6101,-130 792.6101,-130 647.4927,-130 647.4927,-130 647.4927,-130 647.4927,-151.9489 647.4927,-151.9489"/>
<polygon fill="#000000" stroke="#000000" points="643.9927,-151.9488 647.4927,-161.9489 650.9927,-151.9489 643.9927,-151.9488"/>
</g>
<!-- AdminComponent -->
<g id="node14" class="node">
<title>AdminComponent</title>
<polygon fill="#ffffb3" stroke="#000000" points="742.2204,-122 621.7796,-122 621.7796,-86 742.2204,-86 742.2204,-122"/>
<text text-anchor="middle" x="682" y="-99.8" font-family="Times,serif" font-size="14.00" fill="#000000">AdminComponent</text>
</g>
<!-- AdminComponent&#45;&gt;DashboardModule -->
<g id="edge13" class="edge">
<title>AdminComponent&#45;&gt;DashboardModule</title>
<path fill="none" stroke="#000000" d="M634.6913,-122.0109C634.6913,-122.0109 634.6913,-151.855 634.6913,-151.855"/>
<polygon fill="#000000" stroke="#000000" points="631.1914,-151.8549 634.6913,-161.855 638.1914,-151.855 631.1914,-151.8549"/>
</g>
<!-- LeafletComponent -->
<g id="node15" class="node">
<title>LeafletComponent</title>
<polygon fill="#ffffb3" stroke="#000000" points="603.4706,-122 482.5294,-122 482.5294,-86 603.4706,-86 603.4706,-122"/>
<text text-anchor="middle" x="543" y="-99.8" font-family="Times,serif" font-size="14.00" fill="#000000">LeafletComponent</text>
</g>
<!-- LeafletComponent&#45;&gt;DashboardModule -->
<g id="edge14" class="edge">
<title>LeafletComponent&#45;&gt;DashboardModule</title>
<path fill="none" stroke="#000000" d="M590.8401,-122.0109C590.8401,-122.0109 590.8401,-151.855 590.8401,-151.855"/>
<polygon fill="#000000" stroke="#000000" points="587.3402,-151.8549 590.8401,-161.855 594.3402,-151.855 587.3402,-151.8549"/>
</g>
<!-- ChatComponent -->
<g id="node16" class="node">
<title>ChatComponent</title>
<polygon fill="#ffffb3" stroke="#000000" points="464.7744,-122 357.2256,-122 357.2256,-86 464.7744,-86 464.7744,-122"/>
<text text-anchor="middle" x="411" y="-99.8" font-family="Times,serif" font-size="14.00" fill="#000000">ChatComponent</text>
</g>
<!-- ChatComponent&#45;&gt;DashboardModule -->
<g id="edge15" class="edge">
<title>ChatComponent&#45;&gt;DashboardModule</title>
<path fill="none" stroke="#000000" d="M442.7044,-122.0555C442.7044,-133.439 442.7044,-146 442.7044,-146 442.7044,-146 578.195,-146 578.195,-146 578.195,-146 578.195,-151.8056 578.195,-151.8056"/>
<polygon fill="#000000" stroke="#000000" points="574.695,-151.8055 578.195,-161.8056 581.695,-151.8056 574.695,-151.8055"/>
</g>
<!-- MapService -->
<g id="node17" class="node">
<title>MapService</title>
<ellipse fill="#fdb462" stroke="#000000" cx="275" cy="-104" rx="57.8829" ry="18"/>
<text text-anchor="middle" x="275" y="-99.8" font-family="Times,serif" font-size="14.00" fill="#000000">MapService</text>
</g>
<!-- MapService&#45;&gt;DashboardModule -->
<g id="edge16" class="edge">
<title>MapService&#45;&gt;DashboardModule</title>
<path fill="none" stroke="#000000" d="M314.1429,-117.3991C314.1429,-132.2097 314.1429,-154 314.1429,-154 314.1429,-154 565.5498,-154 565.5498,-154 565.5498,-154 565.5498,-154.7942 565.5498,-154.7942"/>
<polygon fill="#000000" stroke="#000000" points="562.0499,-151.9421 565.5498,-161.9421 569.0499,-151.9422 562.0499,-151.9421"/>
</g>
</g>
</svg>
